<?xml version="1.0" encoding="UTF-8"?>
<svg version="1.1" xmlns="http://www.w3.org/2000/svg" width="946" height="945">
<path d="M0 0 C312.18 0 624.36 0 946 0 C946 311.85 946 623.7 946 945 C633.82 945 321.64 945 0 945 C0 633.15 0 321.3 0 0 Z " fill="#F6F6F6" transform="translate(0,0)"/>
<path d="M0 0 C10.828125 -0.12375 10.828125 -0.12375 21.875 -0.25 C25.26241455 -0.30462402 25.26241455 -0.30462402 28.71826172 -0.36035156 C30.53872736 -0.3720506 32.35920358 -0.38223954 34.1796875 -0.390625 C35.56039429 -0.4213208 35.56039429 -0.4213208 36.96899414 -0.45263672 C44.62165606 -0.45669111 51.15262344 1.36316871 57.5078125 5.71875 C61.15797632 9.73922029 62.46166033 12.63950946 62.625 18.125 C62.31773102 22.73403468 61.84587968 26.23609462 59 30 C56.7816128 31.87225586 54.45651953 33.45909229 52 35 C51.01 35.66 50.02 36.32 49 37 C49.85464844 37.97582031 50.70929688 38.95164062 51.58984375 39.95703125 C52.70596754 41.24198049 53.82183991 42.52714814 54.9375 43.8125 C55.50146484 44.45509766 56.06542969 45.09769531 56.64648438 45.75976562 C57.45375977 46.69272461 57.45375977 46.69272461 58.27734375 47.64453125 C58.77484131 48.21534424 59.27233887 48.78615723 59.78491211 49.37426758 C61 51 61 51 62 54 C46.28813559 55.52542373 46.28813559 55.52542373 40.9765625 51.984375 C38.22790496 48.85109303 35.94017632 45.65932873 33.88671875 42.03515625 C32.7793115 40.11058138 32.7793115 40.11058138 30 38 C24.88454834 37.18130795 20.243053 37.09118353 15 37 C15 42.61 15 48.22 15 54 C10.05 54 5.1 54 0 54 C0 36.18 0 18.36 0 0 Z " fill="#050505" transform="translate(375,444)"/>
<path d="M0 0 C10.5496875 -0.12375 10.5496875 -0.12375 21.3125 -0.25 C24.607948 -0.30462402 24.607948 -0.30462402 27.9699707 -0.36035156 C50.02927117 -0.57640014 50.02927117 -0.57640014 56.99731445 5.83886719 C61.79363148 11.10208233 62.34887188 14.94913838 62.28125 22.015625 C61.78899954 27.23894934 59.29415791 29.77395566 55.625 33.25 C50.38960508 36.74026328 45.61834407 37.24494675 39.4140625 37.1953125 C38.36138687 37.19106766 38.36138687 37.19106766 37.28744507 37.18673706 C35.06644972 37.17562512 32.84587155 37.15053834 30.625 37.125 C29.11068295 37.11495854 27.59635951 37.10583473 26.08203125 37.09765625 C22.38773444 37.07742461 18.69432905 37.03826118 15 37 C15 42.61 15 48.22 15 54 C10.05 54 5.1 54 0 54 C0 36.18 0 18.36 0 0 Z " fill="#060606" transform="translate(247,444)"/>
<path d="M0 0 C5.61 0 11.22 0 17 0 C21.72493608 8.30443311 26.34056129 16.55805347 30.5390625 25.140625 C32.08523342 28.16682049 33.76621627 31.07755231 35.5 34 C45 50.03786192 45 50.03786192 45 54 C31.50662637 55.22204139 31.50662637 55.22204139 27.890625 52.2890625 C26.20170927 49.53712333 25 47.26319512 25 44 C14.11 44 3.22 44 -8 44 C-8.66 45.98 -9.32 47.96 -10 50 C-11.14453125 52.359375 -11.14453125 52.359375 -13 54 C-15.71229503 54.29642569 -17.99739732 54.38061189 -20.6875 54.25 C-21.38939453 54.23195313 -22.09128906 54.21390625 -22.81445312 54.1953125 C-24.54355436 54.14826213 -26.27195205 54.07651873 -28 54 C-26.68449266 49.72111832 -25.03641095 45.92830669 -22.91015625 41.9921875 C-22.295354 40.84911133 -21.68055176 39.70603516 -21.04711914 38.52832031 C-20.38573684 37.31046137 -19.72419408 36.09268957 -19.0625 34.875 C-18.38825882 33.62615557 -17.71435189 32.37713064 -17.04077148 31.12792969 C-11.42065972 20.71910007 -5.73360465 10.34671276 0 0 Z " fill="#030303" transform="translate(327,444)"/>
<path d="M0 0 C36.35238604 -2.91250571 36.35238604 -2.91250571 45.59765625 3.97265625 C50.03185344 8.12180389 53.92691552 12.74896763 57 18 C57 18.33 57 18.66 57 19 C38.52 19 20.04 19 1 19 C1 37.81 1 56.62 1 76 C-1.31 74.02 -3.62 72.04 -6 70 C-7.15459717 69.09805908 -8.30919434 68.19611816 -9.4987793 67.2668457 C-14.56658664 63.06893105 -18.99832134 59.14167179 -20.04541016 52.38818359 C-20.42927671 47.30007128 -20.14181008 42.27053734 -19.8125 37.1875 C-19.74713772 35.41623079 -19.68784905 33.64472658 -19.63476562 31.87304688 C-19.50404526 27.57134145 -19.25034291 23.30290245 -19 19 C-12.73 19 -6.46 19 0 19 C0 12.73 0 6.46 0 0 Z " fill="#0A0A0A" transform="translate(622,425)"/>
<path d="M0 0 C4.95 0 9.9 0 15 0 C15.33 5.94 15.66 11.88 16 18 C17.588125 16.700625 19.17625 15.40125 20.8125 14.0625 C21.83085937 13.25039063 22.84921875 12.43828125 23.8984375 11.6015625 C25.93522884 9.94533943 27.65078969 8.31636288 29.4765625 6.3984375 C34.72957566 1.14542434 38.59542717 -0.47933409 45.90258789 -0.61303711 C49.94743036 -0.53963636 53.96938575 -0.3464966 58 0 C53.81240606 4.37831604 49.25952932 8.18034801 44.5625 12 C43.08452396 13.20819701 41.6066574 14.41652795 40.12890625 15.625 C39.42652832 16.19605469 38.72415039 16.76710938 38.00048828 17.35546875 C36.17336217 18.85748504 34.38132299 20.39340257 32.58984375 21.9375 C30 24 30 24 28 24 C30.27269564 27.1249565 32.71050873 29.69950122 35.6328125 32.19921875 C39.97127725 35.95517703 44.18623383 39.82843467 48.375 43.75 C49.08527344 44.40871094 49.79554688 45.06742187 50.52734375 45.74609375 C51.20667969 46.38160156 51.88601563 47.01710938 52.5859375 47.671875 C53.1948584 48.2400293 53.8037793 48.80818359 54.43115234 49.39355469 C56 51 56 51 58 54 C51.2045529 55.45932595 44.68751222 56.31900407 38 54 C29.46397985 48.06691589 22.70828488 39.85609028 16 32 C15.67 39.26 15.34 46.52 15 54 C10.05 54 5.1 54 0 54 C0 36.18 0 18.36 0 0 Z " fill="#030303" transform="translate(443,444)"/>
<path d="M0 0 C15.15326194 -1.93129809 15.15326194 -1.93129809 19.78564453 1.21142578 C23.22815263 4.68028801 25.58922739 8.77987374 28 13 C28.9775656 14.34986787 29.96715454 15.69194494 31 17 C34.02044062 15.68004526 35.76960604 14.39511535 37.76171875 11.77734375 C38.24060547 11.15666016 38.71949219 10.53597656 39.21289062 9.89648438 C39.69951172 9.25001953 40.18613281 8.60355469 40.6875 7.9375 C41.6702558 6.65470491 42.65331307 5.3721407 43.63671875 4.08984375 C44.41660156 3.07019531 45.19648437 2.05054688 46 1 C47 0 47 0 50.81640625 -0.09765625 C52.39846682 -0.09098089 53.98051159 -0.07901875 55.5625 -0.0625 C56.36880859 -0.05798828 57.17511719 -0.05347656 58.00585938 -0.04882812 C60.00393756 -0.03700518 62.00197783 -0.01906914 64 0 C62.32903046 3.81276475 59.86352557 6.9355962 57.3125 10.1875 C56.87059326 10.75976318 56.42868652 11.33202637 55.97338867 11.92163086 C53.93685623 14.55330424 51.87553422 17.14996397 49.75 19.7109375 C48.7909375 20.87496094 48.7909375 20.87496094 47.8125 22.0625 C47.24144531 22.73410156 46.67039062 23.40570313 46.08203125 24.09765625 C44.79311772 25.91516685 44.79311772 25.91516685 45.25952148 27.89111328 C46.09565146 30.27241587 47.1459702 31.71457116 48.765625 33.64453125 C49.32636719 34.32193359 49.88710938 34.99933594 50.46484375 35.69726562 C51.05394531 36.39529297 51.64304687 37.09332031 52.25 37.8125 C64 51.87289326 64 51.87289326 64 54 C58.00107708 55.03011808 51.8823098 55.98456862 46 54 C40.86822415 49.95482658 37.43615018 44.23660097 34.13476562 38.67407227 C33.09237934 36.84225706 33.09237934 36.84225706 31 36 C30.75121094 36.556875 30.50242187 37.11375 30.24609375 37.6875 C28.78346393 40.4018475 27.01508941 42.61471387 25.0625 45 C22.17074797 48.46948443 22.17074797 48.46948443 19.8203125 52.296875 C17.16763996 54.77877463 14.86811586 54.40827295 11.33789062 54.3515625 C10.50451172 54.31804687 9.67113281 54.28453125 8.8125 54.25 C7.5450293 54.22292969 7.5450293 54.22292969 6.25195312 54.1953125 C4.16748427 54.14820586 2.08359856 54.07646233 0 54 C3.66991803 48.23813852 7.94947517 43.08188854 12.31054688 37.83398438 C15.17705537 34.35251558 17.82387396 30.97278527 20 27 C18.7126445 25.39080562 17.42525276 23.78164022 16.13769531 22.17260742 C15.0426594 20.80348605 13.94826187 19.43385386 12.85449219 18.0637207 C10.39133437 14.97967524 7.92533526 11.89912276 5.421875 8.84765625 C4.70515625 7.96980469 3.9884375 7.09195312 3.25 6.1875 C2.61578125 5.41792969 1.9815625 4.64835937 1.328125 3.85546875 C0 2 0 2 0 0 Z " fill="#050505" transform="translate(502,444)"/>
<path d="M0 0 C6.6 0 13.2 0 20 0 C20 18.81 20 37.62 20 57 C13.4 57 6.8 57 0 57 C0 38.19 0 19.38 0 0 Z " fill="#090909" transform="translate(679,444)"/>
<path d="M0 0 C36.35238604 -2.91250571 36.35238604 -2.91250571 45.59765625 3.97265625 C50.03185344 8.12180389 53.92691552 12.74896763 57 18 C57 18.33 57 18.66 57 19 C38.19 19 19.38 19 0 19 C0 12.73 0 6.46 0 0 Z " fill="#010101" transform="translate(622,425)"/>
<path d="M0 0 C12.54 0 25.08 0 38 0 C36.02 2.31 34.04 4.62 32 7 C31.17242188 8.09183594 30.34484375 9.18367188 29.4921875 10.30859375 C26.11567298 14.48842331 22.94612638 18.3677027 17.49511719 19.53759766 C11.52107562 20.04668803 6.05439371 19.49089679 0 19 C0 12.73 0 6.46 0 0 Z " fill="#030303" transform="translate(641,501)"/>
<path d="M0 0 C4.39620224 -0.0809117 8.79091597 -0.14046573 13.1875 -0.1875 C14.43337891 -0.21263672 15.67925781 -0.23777344 16.96289062 -0.26367188 C18.16494141 -0.27333984 19.36699219 -0.28300781 20.60546875 -0.29296875 C21.71043701 -0.3086792 22.81540527 -0.32438965 23.95385742 -0.34057617 C27.38927402 0.04352306 29.2588325 0.92416441 32 3 C32.59375 5.19140625 32.59375 5.19140625 32.5 7.5625 C32.4896875 8.34753906 32.479375 9.13257813 32.46875 9.94140625 C32 12 32 12 29 14 C25.99731445 14.22705078 25.99731445 14.22705078 22.36328125 14.1953125 C20.41518555 14.18564453 20.41518555 14.18564453 18.42773438 14.17578125 C17.05598693 14.1590706 15.68424214 14.14214071 14.3125 14.125 C12.92904282 14.11496674 11.54557873 14.10584149 10.16210938 14.09765625 C6.77466543 14.07405037 3.38731105 14.03817883 0 14 C0 9.38 0 4.76 0 0 Z " fill="#EFEFEF" transform="translate(390,455)"/>
<path d="M0 0 C4.2181424 -0.06889888 8.43433095 -0.12861776 12.65258789 -0.16479492 C14.08722552 -0.17987589 15.52181708 -0.2003438 16.95629883 -0.22631836 C19.01915859 -0.26273437 21.08140858 -0.27973243 23.14453125 -0.29296875 C25.00621948 -0.31653442 25.00621948 -0.31653442 26.90551758 -0.34057617 C30 0 30 0 31.9050293 1.29956055 C33.75489206 4.17231287 33.3537132 6.69867683 33 10 C31.9050293 11.70043945 31.9050293 11.70043945 30 13 C26.90551758 13.34057617 26.90551758 13.34057617 23.14453125 13.29296875 C22.48289474 13.28872391 21.82125824 13.28447906 21.13957214 13.28010559 C19.0301309 13.26333693 16.92165154 13.22569099 14.8125 13.1875 C13.38087319 13.17245068 11.94923138 13.1587627 10.51757812 13.14648438 C7.01105173 13.11599284 3.50660006 13.05727659 0 13 C0 8.71 0 4.42 0 0 Z " fill="#F5F5F5" transform="translate(262,456)"/>
<path d="M0 0 C3.12915801 2.6862618 4.7642676 5.95391929 6.6875 9.5625 C7.31011719 10.71878906 7.93273437 11.87507813 8.57421875 13.06640625 C10 16 10 16 10 18 C3.73 18 -2.54 18 -9 18 C-7.41129508 13.23388525 -5.90790939 9.84651566 -3.375 5.625 C-2.74335938 4.56539063 -2.11171875 3.50578125 -1.4609375 2.4140625 C-0.73777344 1.21910156 -0.73777344 1.21910156 0 0 Z " fill="#E9E9E9" transform="translate(335,459)"/>
<path d="M0 0 C0.66 0.33 1.32 0.66 2 1 C1.54625 1.598125 1.0925 2.19625 0.625 2.8125 C-0.63295913 4.50590652 -1.82984724 6.24477086 -3 8 C-3.99 7.67 -4.98 7.34 -6 7 C-6 6.34 -6 5.68 -6 5 C-4.04072937 3.2856382 -2.04119788 1.61594832 0 0 Z " fill="#E4E4E4" transform="translate(477,463)"/>
</svg>
